# xmcd
# 
# Track frame offsets:
#     150
#     27845
#     50868
#     72650
#     98425
#     116211
#     134099
#     149618
#     171501
#     198140
#     235764
# 
# Disc length: 3724
# 
# Revision: 0
# Processed by: cddbd v1.5.2PL0 Copyright (c) Steve Scherf et al.
# Submitted via: BonkEnc v1.0.8
# 
DISCID=ab0e8a0b
DTITLE=Edgar Winter - Jazzin' the Blues
DYEAR=2004
DGENRE=Jazz
TTITLE0=Дорожка 1
TTITLE1=Дорожка 2
TTITLE2=Дорожка 3
TTITLE3=Дорожка 4
TTITLE4=Дорожка 5
TTITLE5=Дорожка 6
TTITLE6=Дорожка 7
TTITLE7=Дорожка 8
TTITLE8=Дорожка 9
TTITLE9=Дорожка 10
TTITLE10=Дорожка 11
EXTD=YEAR: 2004
EXTT0=
EXTT1=
EXTT2=
EXTT3=
EXTT4=
EXTT5=
EXTT6=
EXTT7=
EXTT8=
EXTT9=
EXTT10=
PLAYORDER=
